<mxfile host="app.diagrams.net" agent="Mozilla/5.0 (Windows NT 10.0; Win64; x64) AppleWebKit/537.36 (KHTML, like Gecko) Chrome/130.0.0.0 Safari/537.36" version="24.8.6">
  <diagram name="페이지-1" id="HObtC5oPkVgvrynjsulA">
    <mxGraphModel dx="1434" dy="780" grid="1" gridSize="10" guides="1" tooltips="1" connect="1" arrows="1" fold="1" page="1" pageScale="1" pageWidth="827" pageHeight="1169" math="0" shadow="0">
      <root>
        <mxCell id="0" />
        <mxCell id="1" parent="0" />
        <mxCell id="wxyRs1XQf3C56py_Pnzs-2" value="Client" style="swimlane;whiteSpace=wrap;html=1;" parent="1" vertex="1">
          <mxGeometry x="299" y="50" width="230" height="250" as="geometry" />
        </mxCell>
        <mxCell id="dVgs3Lkw4lIHIIyf5qNj-17" value="Show restaurant info&lt;br&gt;and media list" style="rounded=1;whiteSpace=wrap;html=1;" vertex="1" parent="wxyRs1XQf3C56py_Pnzs-2">
          <mxGeometry x="20.5" y="140" width="189" height="40" as="geometry" />
        </mxCell>
        <mxCell id="dVgs3Lkw4lIHIIyf5qNj-19" value="" style="ellipse;html=1;shape=endState;fillColor=strokeColor;" vertex="1" parent="wxyRs1XQf3C56py_Pnzs-2">
          <mxGeometry x="100" y="210" width="30" height="30" as="geometry" />
        </mxCell>
        <mxCell id="dVgs3Lkw4lIHIIyf5qNj-20" style="edgeStyle=orthogonalEdgeStyle;rounded=0;orthogonalLoop=1;jettySize=auto;html=1;entryX=0.5;entryY=0;entryDx=0;entryDy=0;" edge="1" parent="wxyRs1XQf3C56py_Pnzs-2" source="dVgs3Lkw4lIHIIyf5qNj-17" target="dVgs3Lkw4lIHIIyf5qNj-19">
          <mxGeometry relative="1" as="geometry" />
        </mxCell>
        <mxCell id="wxyRs1XQf3C56py_Pnzs-3" value="User" style="swimlane;whiteSpace=wrap;html=1;" parent="1" vertex="1">
          <mxGeometry x="559" y="50" width="230" height="250" as="geometry" />
        </mxCell>
        <mxCell id="dVgs3Lkw4lIHIIyf5qNj-11" value="Request restaurant info" style="rounded=1;whiteSpace=wrap;html=1;" vertex="1" parent="wxyRs1XQf3C56py_Pnzs-3">
          <mxGeometry x="20.5" y="90" width="189" height="40" as="geometry" />
        </mxCell>
        <mxCell id="dVgs3Lkw4lIHIIyf5qNj-13" value="" style="edgeStyle=orthogonalEdgeStyle;rounded=0;orthogonalLoop=1;jettySize=auto;html=1;" edge="1" parent="wxyRs1XQf3C56py_Pnzs-3" source="dVgs3Lkw4lIHIIyf5qNj-12" target="dVgs3Lkw4lIHIIyf5qNj-11">
          <mxGeometry relative="1" as="geometry" />
        </mxCell>
        <mxCell id="dVgs3Lkw4lIHIIyf5qNj-12" value="" style="ellipse;fillColor=strokeColor;html=1;" vertex="1" parent="wxyRs1XQf3C56py_Pnzs-3">
          <mxGeometry x="100" y="30" width="30" height="30" as="geometry" />
        </mxCell>
        <mxCell id="dVgs3Lkw4lIHIIyf5qNj-1" value="Server" style="swimlane;whiteSpace=wrap;html=1;" vertex="1" parent="1">
          <mxGeometry x="40" y="50" width="230" height="250" as="geometry" />
        </mxCell>
        <mxCell id="dVgs3Lkw4lIHIIyf5qNj-14" value="Fetch restaurant info&lt;br&gt;and media list" style="rounded=1;whiteSpace=wrap;html=1;" vertex="1" parent="dVgs3Lkw4lIHIIyf5qNj-1">
          <mxGeometry x="20.5" y="90" width="189" height="40" as="geometry" />
        </mxCell>
        <mxCell id="dVgs3Lkw4lIHIIyf5qNj-15" style="edgeStyle=orthogonalEdgeStyle;rounded=0;orthogonalLoop=1;jettySize=auto;html=1;entryX=1;entryY=0.5;entryDx=0;entryDy=0;" edge="1" parent="1" source="dVgs3Lkw4lIHIIyf5qNj-11" target="dVgs3Lkw4lIHIIyf5qNj-14">
          <mxGeometry relative="1" as="geometry" />
        </mxCell>
        <mxCell id="dVgs3Lkw4lIHIIyf5qNj-18" style="edgeStyle=orthogonalEdgeStyle;rounded=0;orthogonalLoop=1;jettySize=auto;html=1;entryX=0;entryY=0.5;entryDx=0;entryDy=0;" edge="1" parent="1" source="dVgs3Lkw4lIHIIyf5qNj-14" target="dVgs3Lkw4lIHIIyf5qNj-17">
          <mxGeometry relative="1" as="geometry">
            <Array as="points">
              <mxPoint x="160" y="210" />
            </Array>
          </mxGeometry>
        </mxCell>
      </root>
    </mxGraphModel>
  </diagram>
</mxfile>
